<svg width="193" height="44" viewBox="0 0 193 44" fill="none" xmlns="http://www.w3.org/2000/svg">
<path d="M53.3553 8.81818L59.6834 28.7102H59.9263L66.2672 8.81818H72.4036L63.378 35H56.2445L47.2061 8.81818H53.3553ZM75.4526 35V15.3636H80.8986V35H75.4526ZM78.1884 12.8324C77.3787 12.8324 76.6841 12.5639 76.1046 12.027C75.5336 11.4815 75.248 10.8295 75.248 10.071C75.248 9.32102 75.5336 8.67756 76.1046 8.14062C76.6841 7.59517 77.3787 7.32244 78.1884 7.32244C78.998 7.32244 79.6884 7.59517 80.2594 8.14062C80.839 8.67756 81.1287 9.32102 81.1287 10.071C81.1287 10.8295 80.839 11.4815 80.2594 12.027C79.6884 12.5639 78.998 12.8324 78.1884 12.8324ZM101.599 20.9631L96.6135 21.2699C96.5282 20.8437 96.345 20.4602 96.0637 20.1193C95.7825 19.7699 95.4118 19.4929 94.9515 19.2884C94.4998 19.0753 93.9586 18.9688 93.3279 18.9688C92.4842 18.9688 91.7725 19.1477 91.193 19.5057C90.6135 19.8551 90.3237 20.3239 90.3237 20.9119C90.3237 21.3807 90.5112 21.777 90.8862 22.1009C91.2612 22.4247 91.9047 22.6847 92.8166 22.8807L96.3706 23.5966C98.2797 23.9886 99.7029 24.6193 100.64 25.4886C101.578 26.358 102.047 27.5 102.047 28.9148C102.047 30.2017 101.667 31.331 100.909 32.3026C100.159 33.2741 99.1277 34.0327 97.8152 34.5781C96.5112 35.1151 95.0069 35.3835 93.3024 35.3835C90.7029 35.3835 88.6319 34.8423 87.0893 33.7599C85.5552 32.669 84.6561 31.1861 84.3919 29.3111L89.7484 29.0298C89.9103 29.8224 90.3024 30.4276 90.9245 30.8452C91.5467 31.2543 92.3436 31.4588 93.3152 31.4588C94.2697 31.4588 95.0368 31.2756 95.6163 30.9091C96.2044 30.5341 96.5027 30.0526 96.5112 29.4645C96.5027 28.9702 96.2939 28.5653 95.8848 28.25C95.4757 27.9261 94.845 27.679 93.9927 27.5085L90.5922 26.831C88.6745 26.4474 87.247 25.7827 86.3095 24.8366C85.3805 23.8906 84.916 22.6847 84.916 21.2188C84.916 19.9574 85.2569 18.8707 85.9387 17.9588C86.6291 17.0469 87.5964 16.3438 88.8407 15.8494C90.0936 15.3551 91.5595 15.108 93.2385 15.108C95.7186 15.108 97.6703 15.6321 99.0936 16.6804C100.525 17.7287 101.361 19.1562 101.599 20.9631ZM110.922 23.6477V35H105.476V8.81818H110.769V18.8281H110.999C111.442 17.669 112.158 16.7614 113.146 16.1051C114.135 15.4403 115.375 15.108 116.867 15.108C118.23 15.108 119.419 15.4062 120.433 16.0028C121.456 16.5909 122.249 17.4389 122.811 18.5469C123.382 19.6463 123.664 20.9631 123.655 22.4972V35H118.209V23.4688C118.218 22.2585 117.911 21.3168 117.289 20.6435C116.675 19.9702 115.814 19.6335 114.706 19.6335C113.965 19.6335 113.308 19.7912 112.737 20.1065C112.175 20.4219 111.732 20.8821 111.408 21.4872C111.093 22.0838 110.931 22.804 110.922 23.6477ZM133.54 35.3707C132.287 35.3707 131.171 35.1534 130.191 34.7188C129.211 34.2756 128.435 33.6236 127.864 32.7628C127.302 31.8935 127.02 30.8111 127.02 29.5156C127.02 28.4247 127.221 27.5085 127.621 26.767C128.022 26.0256 128.567 25.429 129.258 24.9773C129.948 24.5256 130.732 24.1847 131.61 23.9545C132.496 23.7244 133.425 23.5625 134.397 23.4688C135.539 23.3494 136.459 23.2386 137.158 23.1364C137.857 23.0256 138.364 22.8636 138.68 22.6506C138.995 22.4375 139.153 22.1222 139.153 21.7045V21.6278C139.153 20.8182 138.897 20.1918 138.385 19.7486C137.883 19.3054 137.167 19.0838 136.238 19.0838C135.258 19.0838 134.478 19.3011 133.898 19.7358C133.319 20.1619 132.935 20.6989 132.748 21.3466L127.711 20.9375C127.966 19.7443 128.469 18.7131 129.219 17.8438C129.969 16.9659 130.937 16.2926 132.121 15.8239C133.314 15.3466 134.695 15.108 136.263 15.108C137.354 15.108 138.398 15.2358 139.395 15.4915C140.401 15.7472 141.292 16.1435 142.067 16.6804C142.851 17.2173 143.469 17.9077 143.921 18.7514C144.373 19.5866 144.599 20.5881 144.599 21.7557V35H139.434V32.277H139.28C138.965 32.8906 138.543 33.4318 138.015 33.9006C137.486 34.3608 136.851 34.723 136.11 34.9872C135.368 35.2429 134.512 35.3707 133.54 35.3707ZM135.1 31.6122C135.901 31.6122 136.608 31.4545 137.222 31.1392C137.836 30.8153 138.317 30.3807 138.667 29.8352C139.016 29.2898 139.191 28.6719 139.191 27.9815V25.8977C139.02 26.0085 138.786 26.1108 138.488 26.2045C138.198 26.2898 137.87 26.3707 137.503 26.4474C137.137 26.5156 136.77 26.5795 136.404 26.6392C136.037 26.6903 135.705 26.7372 135.407 26.7798C134.768 26.8736 134.209 27.0227 133.732 27.2273C133.255 27.4318 132.884 27.7088 132.62 28.0582C132.356 28.3991 132.224 28.8253 132.224 29.3366C132.224 30.0781 132.492 30.6449 133.029 31.0369C133.574 31.4205 134.265 31.6122 135.1 31.6122Z" fill="white"/>
<rect x="62.0553" y="22.0253" width="14.3053" height="3.68449" transform="rotate(107.712 62.0553 22.0253)" fill="#0D0D0D"/>
<rect x="113" y="27" width="12" height="8" transform="rotate(90 113 27)" fill="#0D0D0D"/>
<rect x="60.9984" y="13" width="11" height="4.2" transform="rotate(-180 60.9984 13)" fill="white"/>
<path d="M74 13.5V7H81.5L82 13L74 13.5Z" fill="#0D0D0D"/>
<path d="M167 15H161.359L151.615 43H156.231L167 15Z" fill="white"/>
<path d="M152.641 15H147L152.641 28L155 23L152.641 15Z" fill="white"/>
<path d="M84 21H91L84 16V21Z" fill="#0D0D0D" stroke="#0D0D0D"/>
<path d="M104 29H95L104 35V29Z" fill="#0D0D0D" stroke="#0D0D0D"/>
<path d="M146 22H138V21L146 18V22Z" fill="#0D0D0D" stroke="#0D0D0D"/>
</svg>
