<svg width="193" height="44" viewBox="0 0 193 44" fill="none" xmlns="http://www.w3.org/2000/svg">
<path d="M59.535 8.81818L65.8631 28.7102H66.106L72.4469 8.81818H78.5833L69.5577 35H62.4242L53.3858 8.81818H59.535ZM106.302 20.9631L101.317 21.2699C101.231 20.8437 101.048 20.4602 100.767 20.1193C100.486 19.7699 100.115 19.4929 99.6547 19.2884C99.2029 19.0753 98.6618 18.9688 98.0311 18.9688C97.1873 18.9688 96.4757 19.1477 95.8961 19.5057C95.3166 19.8551 95.0268 20.3239 95.0268 20.9119C95.0268 21.3807 95.2143 21.777 95.5893 22.1009C95.9643 22.4247 96.6078 22.6847 97.5197 22.8807L101.074 23.5966C102.983 23.9886 104.406 24.6193 105.344 25.4886C106.281 26.358 106.75 27.5 106.75 28.9148C106.75 30.2017 106.371 31.331 105.612 32.3026C104.862 33.2741 103.831 34.0327 102.518 34.5781C101.214 35.1151 99.7101 35.3835 98.0055 35.3835C95.4061 35.3835 93.335 34.8423 91.7924 33.7599C90.2583 32.669 89.3592 31.1861 89.095 29.3111L94.4515 29.0298C94.6135 29.8224 95.0055 30.4276 95.6277 30.8452C96.2498 31.2543 97.0467 31.4588 98.0183 31.4588C98.9728 31.4588 99.7399 31.2756 100.319 30.9091C100.907 30.5341 101.206 30.0526 101.214 29.4645C101.206 28.9702 100.997 28.5653 100.588 28.25C100.179 27.9261 99.5481 27.679 98.6958 27.5085L95.2953 26.831C93.3777 26.4474 91.9501 25.7827 91.0126 24.8366C90.0836 23.8906 89.6191 22.6847 89.6191 21.2188C89.6191 19.9574 89.96 18.8707 90.6419 17.9588C91.3322 17.0469 92.2995 16.3438 93.5439 15.8494C94.7967 15.3551 96.2626 15.108 97.9416 15.108C100.422 15.108 102.373 15.6321 103.797 16.6804C105.229 17.7287 106.064 19.1562 106.302 20.9631ZM115.625 23.6477V35H110.179V8.81818H115.472V18.8281H115.702C116.145 17.669 116.861 16.7614 117.85 16.1051C118.838 15.4403 120.078 15.108 121.57 15.108C122.933 15.108 124.122 15.4062 125.137 16.0028C126.159 16.5909 126.952 17.4389 127.514 18.5469C128.085 19.6463 128.367 20.9631 128.358 22.4972V35H122.912V23.4688C122.921 22.2585 122.614 21.3168 121.992 20.6435C121.378 19.9702 120.517 19.6335 119.409 19.6335C118.668 19.6335 118.012 19.7912 117.441 20.1065C116.878 20.4219 116.435 20.8821 116.111 21.4872C115.796 22.0838 115.634 22.804 115.625 23.6477Z" fill="black"/>
<rect x="68.1649" y="22.2177" width="14.3053" height="4.00244" transform="rotate(107.712 68.1649 22.2177)" fill="white"/>
<rect x="117" y="30" width="9" height="8" transform="rotate(90 117 30)" fill="white"/>
<path d="M67.5 13L56.5 13L56.5 9L67.5 9L67.5 13Z" fill="black"/>
<path d="M53 9V8.5V8H60V9H53Z" fill="white"/>
<path d="M149 16H143.359L133.615 44H138.231L149 16Z" fill="black"/>
<path d="M134.641 16H129L134.641 29L137 23L134.641 16Z" fill="black"/>
<path d="M88 21H95L88 16V21Z" fill="white" stroke="white"/>
<path d="M107 29H98L107 35V29Z" fill="white" stroke="white"/>
<path d="M78 25V22H87V25H78Z" fill="black"/>
</svg>
